<?xml version="1.0" encoding="UTF-8"?>
<svg id="Layer_2" data-name="Layer 2" xmlns="http://www.w3.org/2000/svg" viewBox="0 0 515.38 557.06">
  <g id="Layer_1-2" data-name="Layer 1">
    <g>
      <path d="M235.63,107.25v112.12l1.12,1.12h190.88v73.87c0,.26,1.33.83-.38,1.88h-191.62v113.25c17.37.05,34.77-.05,52.16-.03,1.98,0,3.74.85,5.93.8,6.37-.14,10.1-2.4,14.34-6.76.85-.88.95-2.26,1.08-2.26h206.25c-5.93,15.3-15.87,33.25-29.75,42.62-8.42,5.69-29.18,9.77-39.84,12.66-53.39,14.48-107.2,28.46-161.04,40.78-14.04-.83-28.51.38-42.78-.04-1.28-.04-6.34-1.69-6.34.34v58.88h-20.25l-1.11-59.32-42.39-.68.75-6.75h41.62c2.35,0-.16-10.31.38-12h-22.5v-6.75s22.5-.74,22.5-.74l.75-11.25h-22.12c-1.77-1.61-1.77-5.89,0-7.5h21.38l.57-10.91-.94-1.09h-22.12l.75-7.5h22.5l-.75-11.25h-41.62l-.85-1.12.48-6.38h42v-12h-21.75v-6.75h21.75v-12h-21.38c-1.77-1.61-1.77-5.89,0-7.5h22.12c.2-.55-.75-.9-.75-1.12v-10.88h-21.38c-2.07-1.74.14-4.99-.38-7.5h22.5c-.31-3.72-.02-8.92-1.88-12h-40.88l-.67-5.57,1.04-1.18h42.38l-.86-11.9c-5.32-.05-10.72-.29-16.05-.14-7.16.21-6.7,2.54-5.59-6.72h19.12c.4,0,1.67-1.16,2.62-.75v-12h-21.75v-6.75h21.75v-12h-22.5v-6.75h22.12l.96-1.12c.02-.3-.59-.56-.59-.75v-10.88l-40.88.75-1.68-1.1.56-6.41h42l.67-10.82-1.04-1.18h-21.38v-6.75h22.5v-10.88l-1.12-1.12h-21.38v-7.5h21.38l.94-1.09-.57-10.91h-21.75v-6.75h22.5c-1.36-3.91,1.39-8.91-1.12-12h-41.62v-7.5s42.44.04,42.44.04l-.39-11.71-21.31.32c-1.91-.63-1.82-6.19-.1-7.4h22.12l-.75-12h-21.75l-.77-4.88,1.26-1.75,21.3-.46.57-9.96-.98-1.69h-22.12c.28-2.47-.93-5.72,1.12-7.5h21l1.04-1.18-.67-10.82h-42l-.57-5.66.94-1.09h42.38l-.75-108h20.62l.94,1.09c-.39,3.23-1.4,13.92-.37,16.44.48,1.17,1.5,1.5,2.59,1.81l47.87-.62c65.71,15.76,131.71,32.33,196.32,51.93,15.54,9.8,25.47,26.6,32.65,43.14l-1.8,1.74-202.83-.41c-1.72-1.86-7.9-7.86-10.14-7.86h-64.88Z"/>
      <path d="M150.88,0l.04,554.66-.78,2.27c-.54.45-.95-.43-1.13-.43h-19.12v-59.25l-27-.75v-47.62l-1.12-1.12h-27.75l-6,6H.13c-.47-1.77.45-1.27.96-1.72,8.38-7.41,13.66-13.86,23.56-19.89,31.12-18.93,69.25-23.99,105.23-22.65v-39.38l-15.39-7.83,2.49-19.76c-.53-1.79-11.29-9.14-13.7-11.05-1.08-.86-2.55-2.99-3.42-3.38-2.87-1.29-17.44,7.22-21.94,6.44l-14.56-20.66c1.45-3.76,14.12-15.07,13.86-17.88-.11-1.21-2.1-3.89-2.65-5.55-1.49-4.47-2.59-9.07-4.1-13.53l-20.48-6.14-.39-25.82,20.53-5.1,1.15-1.1,5.98-19.23-13.36-16.64c3.68-7.87,9.06-14.91,14.77-21.29l18.03,6.51c4.18.9,7.03-4.07,10.01-6.17,1.82-1.28,9.92-5.68,10.34-6.95l-1.81-21.27,14.65-6.34v-40.12c-41.27,1.57-88.11-6.25-120.01-34.12-2.34-2.04-6.83-6.29-8.62-8.63-.58-.76-1.45-.95-1.12-2.26h67.88c.58,0,4.08,6,7.5,6h27.38V20.62c0-.26-1.49-.77.36-1.78,4.69-.07,9.55.72,14.22.68,1.43-.01,2.9-.79,4.54-.83,1.2-.03,7.88,1.72,7.88-1.06V0h21ZM129.88,318.75v-118.12c0-.14-.93-2.68-1.12-2.62-24.71,15.96-38.76,44.96-32.42,74.41,2.86,13.28,11.61,28.46,21.53,37.72,1.06.99,11.31,9.42,12.01,8.61Z"/>
    </g>
  </g>
</svg>